<svg xmlns="http://www.w3.org/2000/svg" viewBox="0 0 1920 1080"><defs><circle stroke="none" stroke-width="2" id="wtg" r="12"/><rect stroke="#111" stroke-width="2" id="oss" width="21" height="21" fill="lawngreen"/><filter x="-5%" y="-5%" id="bg_textbox" width="110%" height="110%"><feFlood flood-opacity="0.6" flood-color="black" result="bg"/><feMerge><feMergeNode in="bg"/><feMergeNode in="SourceGraphic"/></feMerge></filter></defs><g id=""><path stroke="silver" stroke-dasharray="15 7" stroke-width="2" id="border" d="M30 1050 613 1050 613 30 30 30z M234 555 409 555 409 525 234 525z" fill-rule="evenodd" fill="#111"/><g stroke-width="3" id="cable_0"><g stroke="crimson" id="edges_unspecified"><line x1="321" y1="613" x2="467" y2="613"/><line x1="176" y1="467" x2="321" y2="467"/><line x1="176" y1="467" x2="176" y2="321"/><line x1="467" y1="613" x2="467" y2="467"/><line x1="467" y1="467" x2="467" y2="321"/><line x1="321" y1="467" x2="321" y2="321"/><line x1="321" y1="321" x2="321" y2="176"/></g></g><g stroke-width="6" id="cable_1"><g stroke="crimson" id="edges_unspecified"><line x1="176" y1="613" x2="321" y2="613"/><line x1="176" y1="613" x2="176" y2="467"/></g></g><g stroke-width="9" id="cable_2"><g stroke="crimson" id="edges_unspecified"><line x1="321" y1="904" x2="321" y2="613"/></g></g><g id="WTGgrp"><g fill="#1f77b4"><use href="#wtg" x="176" y="613"/><use href="#wtg" x="321" y="613"/><use href="#wtg" x="176" y="467"/><use href="#wtg" x="467" y="613"/><use href="#wtg" x="467" y="467"/><use href="#wtg" x="321" y="467"/><use href="#wtg" x="176" y="321"/><use href="#wtg" x="321" y="321"/><use href="#wtg" x="467" y="321"/><use href="#wtg" x="321" y="176"/></g></g><g id="OSSgrp"><use href="#oss" x="310.5" y="893.5"/></g></g><text filter="url(#bg_textbox)" text-anchor="end" font-family="sans-serif" font-size="40" fill="white" x="613" y="1050"><tspan x="613" dy="-0.0em">6&#8239;700&#160;&#8364;</tspan><tspan x="613" dy="-1.3em">&#931;&#955; = 5&#8239;500.0&#160;m</tspan><tspan x="613" dy="-1.3em">(+0) [-1]: 1</tspan><tspan x="613" dy="-1.3em">&#954; = 10, T = 10</tspan></text></svg>